<mxfile modified="2024-03-19T15:41:01.025Z" host="app.diagrams.net" agent="Mozilla/5.0 (Windows NT 10.0; Win64; x64) AppleWebKit/537.36 (KHTML, like Gecko) Chrome/122.0.0.0 Safari/537.36" etag="ojWkJE7s4L4Ep-AEkbhi" version="24.0.7" type="github">
  <diagram id="7gcUSTIZ7YSJ5vT40chW" name="Page-1">
    <mxGraphModel dx="974" dy="405" grid="1" gridSize="10" guides="1" tooltips="1" connect="1" arrows="1" fold="1" page="1" pageScale="1" pageWidth="1169" pageHeight="827" math="0" shadow="0">
      <root>
        <mxCell id="0" />
        <mxCell id="1" parent="0" />
        <mxCell id="XahiPvy6vPGYUsTQ0Iza-3" value="" style="edgeStyle=orthogonalEdgeStyle;rounded=0;orthogonalLoop=1;jettySize=auto;html=1;" edge="1" parent="1" source="XahiPvy6vPGYUsTQ0Iza-1" target="XahiPvy6vPGYUsTQ0Iza-2">
          <mxGeometry relative="1" as="geometry" />
        </mxCell>
        <mxCell id="XahiPvy6vPGYUsTQ0Iza-5" value="Text" style="edgeLabel;html=1;align=center;verticalAlign=middle;resizable=0;points=[];" vertex="1" connectable="0" parent="XahiPvy6vPGYUsTQ0Iza-3">
          <mxGeometry x="-0.146" y="3" relative="1" as="geometry">
            <mxPoint as="offset" />
          </mxGeometry>
        </mxCell>
        <mxCell id="XahiPvy6vPGYUsTQ0Iza-6" value="Periodically scrape for&amp;nbsp;&lt;div&gt;list of available GeWos&lt;/div&gt;" style="edgeLabel;html=1;align=center;verticalAlign=middle;resizable=0;points=[];" vertex="1" connectable="0" parent="XahiPvy6vPGYUsTQ0Iza-3">
          <mxGeometry x="-0.2302" y="6" relative="1" as="geometry">
            <mxPoint x="-6" as="offset" />
          </mxGeometry>
        </mxCell>
        <mxCell id="XahiPvy6vPGYUsTQ0Iza-8" value="" style="edgeStyle=orthogonalEdgeStyle;rounded=0;orthogonalLoop=1;jettySize=auto;html=1;" edge="1" parent="1" source="XahiPvy6vPGYUsTQ0Iza-1" target="XahiPvy6vPGYUsTQ0Iza-4">
          <mxGeometry relative="1" as="geometry" />
        </mxCell>
        <mxCell id="XahiPvy6vPGYUsTQ0Iza-9" value="Update storage with&amp;nbsp;&lt;div&gt;scraped data&lt;/div&gt;" style="edgeLabel;html=1;align=center;verticalAlign=middle;resizable=0;points=[];" vertex="1" connectable="0" parent="XahiPvy6vPGYUsTQ0Iza-8">
          <mxGeometry x="0.1855" y="-1" relative="1" as="geometry">
            <mxPoint x="-1" y="7" as="offset" />
          </mxGeometry>
        </mxCell>
        <mxCell id="XahiPvy6vPGYUsTQ0Iza-1" value="&lt;div&gt;GeWo Website&lt;/div&gt;Scraper" style="rounded=0;whiteSpace=wrap;html=1;" vertex="1" parent="1">
          <mxGeometry x="320" y="480" width="120" height="50" as="geometry" />
        </mxCell>
        <mxCell id="XahiPvy6vPGYUsTQ0Iza-2" value="GeWo Websites" style="shape=image;verticalLabelPosition=bottom;labelBackgroundColor=#ffffff;verticalAlign=top;aspect=fixed;imageAspect=0;image=data:image/svg+xml,PHN2ZyB4bWxuczpjYz0iaHR0cDovL2NyZWF0aXZlY29tbW9ucy5vcmcvbnMjIiB4bWxuczpkYz0iaHR0cDovL3B1cmwub3JnL2RjL2VsZW1lbnRzLzEuMS8iIHhtbG5zOmlua3NjYXBlPSJodHRwOi8vd3d3Lmlua3NjYXBlLm9yZy9uYW1lc3BhY2VzL2lua3NjYXBlIiB4bWxuczpyZGY9Imh0dHA6Ly93d3cudzMub3JnLzE5OTkvMDIvMjItcmRmLXN5bnRheC1ucyMiIHhtbG5zOnNvZGlwb2RpPSJodHRwOi8vc29kaXBvZGkuc291cmNlZm9yZ2UubmV0L0RURC9zb2RpcG9kaS0wLmR0ZCIgeG1sbnM6c3ZnPSJodHRwOi8vd3d3LnczLm9yZy8yMDAwL3N2ZyIgeG1sbnM9Imh0dHA6Ly93d3cudzMub3JnLzIwMDAvc3ZnIiB4bWxuczp4bGluaz0iaHR0cDovL3d3dy53My5vcmcvMTk5OS94bGluayIgdmVyc2lvbj0iMS4xIiBpZD0ic3ZnMTIwNjUiIGlua3NjYXBlOnZlcnNpb249IjAuOTIuMyAoMjQwNTU0NiwgMjAxOC0wMy0xMSkiIHNvZGlwb2RpOmRvY25hbWU9IndlYnNpdGVzLnN2ZyIgeD0iMHB4IiB5PSIwcHgiIHZpZXdCb3g9IjAgMCA0MC4yMiA0MC4wMiIgc3R5bGU9ImVuYWJsZS1iYWNrZ3JvdW5kOm5ldyAwIDAgNDAuMjIgNDAuMDI7IiB4bWw6c3BhY2U9InByZXNlcnZlIj4mI3hhOzxzb2RpcG9kaTpuYW1lZHZpZXcgYm9yZGVyY29sb3I9IiM2NjY2NjYiIGJvcmRlcm9wYWNpdHk9IjEiIGZpdC1tYXJnaW4tYm90dG9tPSIwIiBmaXQtbWFyZ2luLWxlZnQ9IjAiIGZpdC1tYXJnaW4tcmlnaHQ9IjAiIGZpdC1tYXJnaW4tdG9wPSIwIiBncmlkdG9sZXJhbmNlPSIxMCIgZ3VpZGV0b2xlcmFuY2U9IjEwIiBpZD0ibmFtZWR2aWV3MTIwNjciIGlua3NjYXBlOmN1cnJlbnQtbGF5ZXI9InN2ZzEyMDY1IiBpbmtzY2FwZTpjeD0iMjQuNjM2NjY5IiBpbmtzY2FwZTpjeT0iMjEuNTIzNTM3IiBpbmtzY2FwZTpwYWdlb3BhY2l0eT0iMCIgaW5rc2NhcGU6cGFnZXNoYWRvdz0iMiIgaW5rc2NhcGU6d2luZG93LWhlaWdodD0iMTAxNyIgaW5rc2NhcGU6d2luZG93LW1heGltaXplZD0iMSIgaW5rc2NhcGU6d2luZG93LXdpZHRoPSIxOTIwIiBpbmtzY2FwZTp3aW5kb3cteD0iLTgiIGlua3NjYXBlOndpbmRvdy15PSItOCIgaW5rc2NhcGU6em9vbT0iOC4xMjM1MjcxIiBvYmplY3R0b2xlcmFuY2U9IjEwIiBwYWdlY29sb3I9IiNmZmZmZmYiIHNob3dncmlkPSJmYWxzZSI+JiN4YTsJPC9zb2RpcG9kaTpuYW1lZHZpZXc+JiN4YTs8ZyBpZD0iZzEyMDYzIj4mI3hhOwk8dGl0bGUgaWQ9InRpdGxlMTIwNTMiPlBhZ2UtMTwvdGl0bGU+JiN4YTsJPGcgaWQ9Imdyb3VwNDMyMi0xIj4mI3hhOwkJPHRpdGxlIGlkPSJ0aXRsZTEyMDU1Ij5XZWJzaXRlczwvdGl0bGU+JiN4YTsJCTxnIGlkPSJzaGFwZTQzMjMtMiI+JiN4YTsJCQk8dGl0bGUgaWQ9InRpdGxlMTIwNTciPlNoZWV0LjQzMjM8L3RpdGxlPiYjeGE7CQkJPHBhdGggaWQ9InBhdGgxMjA1OSIgaW5rc2NhcGU6Y29ubmVjdG9yLWN1cnZhdHVyZT0iMCIgc3R5bGU9ImZpbGw6IzNGNTc2NTsiIGQ9Ik0yMCwwYzExLjA3LDAsMjAuMjIsOC45LDIwLjIyLDE5LjkxICAgICBjMCwxMS4yMi05LjE1LDIwLjExLTIwLjIyLDIwLjExYy0xMS4wNiwwLTIwLTguODktMjAtMjAuMTFDMCw4LjksOC45NCwwLDIwLDB6IE0yNy40NiwzNi40M2MtMC42NC0zLjM5LDEuMjctOS4xMSwwLjIxLTEwLjE3ICAgICBjLTAuNDItMC4yMS0wLjg1LTAuNDItMS4yOC0wLjIxYy0wLjg1LDAuMjEtMS43LDAuNjMtMi4zNCwwLjQyYy0zLjYyLTEuNjktMS40OS03LjQxLDIuMTMtOC42OGMwLjY0LTAuMjEsMS4yOC0wLjIxLDEuOTEtMC4yMSAgICAgYzEuMDctMC4yMSwxLjcxLTAuMjEsMS43MSwwLjQyYzAsMC44NSwxLjcsMS40OSwyLjEyLDEuNDljMC4yMiwwLDAuMjItMC42NCwwLjQzLTAuNjRjMS40OSwwLDIuNTUsMC44NSwyLjc3LDAuMjEgICAgIGMwLjQyLTIuMTIsMC4yMS0xLjA2LTEuNS0xLjI3Yy0wLjYzLTAuMjEtMC4yMS0xLjI3LTAuODQtMS4yN2MtMC40My0wLjIxLDAuMjEsMS4yNy0wLjQzLDAuODVjLTAuODUtMC42NC0xLjI4LTIuMTItMi4xMy0yLjMzICAgICBjLTEuMDYtMC4yMSwwLjY0LDAuODQsMC44NSwxLjQ4YzAuMjEsMC42NC0wLjY0LDEuNDgtMS4wNiwwLjg1Yy0wLjIxLTAuMjEsMC44NS0wLjg1LTAuNDMtMS42OWMtMC4yMS0wLjQzLTAuODUtMC40My0xLjI4LDAgICAgIGMtMC42MywwLjYzLTAuODQsMS4yNi0xLjA1LDEuMjZjLTAuNjUsMC40My0xLjA3LDAuNDMtMS43MSwwLjIyYy0wLjg1LTAuMjItMC42NC0yLjEyLDAuMjEtMS45MWMyLjU1LDAuNjMsMC4yMS0wLjg1LDAuODUtMS4yNyAgICAgYzAuMjItMC4yMSwxLjA3LTAuODQsMS40OS0xLjQ4YzAuNDMtMC40MywwLjIxLTEuNjksMS4wNy0xLjQ4YzAuNDIsMCwwLjIxLDAuODQsMC42NCwxLjA1YzAuMjEsMC4yMSwwLjg0LDAsMS4yNywwICAgICBjMC42NCwwLDAuNjQtMC40MiwwLjY0LTEuMDVjMC0wLjg1LDEuNDktMC42NCwxLjQ5LTEuMDdjLTAuMjEtMC42My0xLjcsMC4yMi0xLjctMC42M2MwLTEuMDYsMS4yOC0xLjI3LDAuNDItMS40OCAgICAgYy0wLjY0LTAuMjItMS40OSwwLjQyLTEuMjgsMS45YzAuMjIsMS40OSwwLjQzLDIuMTItMC42MywxLjdjLTAuODUtMC42MywwLjIxLTEuNy0wLjY0LTEuMjdjLTAuNjQsMC40Mi0xLjA3LDAuNjQtMS4wNy0wLjQzICAgICBjMC0wLjg0LDEuNzEtMy4zOCwyLjk4LTMuODFjLTIuMzQtMS45LTUuMS0zLjE3LTguMy0zLjZsMCwwYzAsMS43LDAsMi43Ni0wLjIxLDMuNmMwLDEuMDYtMy4xOSwxLjI3LTMuNjEsMy4xOCAgICAgYy0wLjQzLDEuNy0xLjA3LDAuNjMtMi4xMy0wLjY0Yy0xLjA3LTEuMjcsMC4yMS0yLjk2LTAuNDItNC4wMmMtMC40My0xLjA2LTIuMzUsMC40My0yLjM1LTAuNjRjMC0wLjQyLDAuNDItMC44NCwwLjQyLTEuMDUgICAgIGMtMC4yMSwwLjIxLTAuNDIsMC4yMS0wLjYzLDAuMjFjLTAuNjQsMC40Mi0xLjA3LDEuNy0xLjI4LDEuOTFjLTAuNjQsMC44NCwwLjg1LDAuNjMsMS40OSwxLjQ4YzAuODUsMS4yNiwxLjQ5LDIuMTEsMS4wNiwyLjc1ICAgICBjLTAuMjEsMC42My0yLjc2LDAtMi4zNC0xLjA2YzAuNjQtMS4wNiwwLjIyLTEuMjctMC40Mi0xLjQ4Yy0wLjY0LDAtMC42NCwwLjg0LTAuNjQsMS45YzAsMC44NS0xLjcsMS4wNi0yLjU2LDEuOTEgICAgIGMtMC44NCwxLjA2LDAuNjQsMS45LDEuOTMsMi4zM2MxLjI3LDAuNDMsMC40Mi0xLjY5LDAuODQtMi43NmMwLjQzLTEuNDgsMS45Mi0wLjIxLDIuOTgsMS4wN2MwLjg1LDEuMjYsMi4zNCwyLjk2LDAuNDMsMy44MSAgICAgYy0zLjIsMS4yNi00LjQ3LDIuNzUtNS4xMSw0LjAyYy0wLjY0LDEuMjcsMCwxLjktMC40MywyLjMzYy0wLjQyLDAuNDMtMC40Mi0wLjIxLTAuODUtMS4yN2MtMC40Mi0wLjYzLTEuOTEtMC42My0yLjU1LDAuNjMgICAgIGMtMC40MiwwLjIxLTAuNDIsMC44NS0wLjQyLDEuNDljMCwyLjEyLDEuNDgtMC42NCwyLjM0LTAuMjFjMS4wNiwwLjIxLTAuODYsMC40Mi0wLjY0LDEuMjZjMC4yMSwwLjg2LDEuNDgtMC40MiwxLjA2LDEuNDggICAgIGMtMC4yMSwxLjA3LDEuNDksMC4yMiwyLjU2LTAuMmMyLjM0LTAuODUsNC4wNCwyLjk2LDUuNzQsMy42YzEuOTIsMC42MywyLjU1LDEuMDUsMi4xMywxLjljLTEuMjgsMi41NS0zLjgzLDQuMjQtNS4xMSw3LjIgICAgIGMxLjcsMC42MywzLjgzLDAuODUsNS43NCwwLjg1QzIyLjc3LDM3LjkxLDI1LjExLDM3LjQ4LDI3LjQ2LDM2LjQzeiBNMzcuNjcsMjQuMTVjLTAuNDMsMC0wLjg1LDAuMjEtMS4wNywwLjIxICAgICBjLTEuMDYtMC40Mi0wLjQyLTQuNjYtMS45MS00LjQ1Yy0wLjY0LDAuMjEsMC40MywzLjM5LDEuOTEsNS4wOGMwLjIyLDAuMjEsMC40MywwLDAuODYsMEMzNy40NiwyNC43OCwzNy42NywyNC4zNiwzNy42NywyNC4xNXogICAgICBNMzYuNiwyNy4xMWMtMS43LTAuNDMtMi45OCwzLjM5LTMuNCw1LjA4QzM0LjY5LDMwLjcxLDM1Ljc1LDI5LjAxLDM2LjYsMjcuMTF6IE0xMS4wNywzNS41OGMwLjIyLTEuNywwLjQzLTMuNiwwLTMuODEgICAgIEM5LjU4LDMwLjUsOC41MiwyOC41OSwxMCwyNi42OGMwLjIyLTAuMjEsMC40My0wLjQyLDAuNDMtMC44NGMwLjIxLTAuNjQtMC40My0wLjIxLTEuNDktMC4yMXMtMC4yMS0xLjY5LTIuMzQtMS45MSAgICAgYy0yLjEzLTAuMjEtMi4xMy0wLjY0LTIuMzQtMS45YzAtMS4yOC0xLjI3LTIuNTQtMi4zNC0yLjc2YzAsMC4yMiwwLDAuNjQsMCwwLjg1QzEuOTIsMjYuNjgsNS43NSwzMi42MiwxMS4wNywzNS41OHogICAgICBNMjIuOTgsOC42OWMwLjg2LDAuNDIsMS43MS0wLjIyLDEuNS0wLjg1QzIzLjg0LDYuNzgsMjEuOTMsNy40MSwyMi45OCw4LjY5eiBNMjYuNiwxMC4zOGMwLjY1LDAsMS4wNywxLjI3LDAuODYsMS45ICAgICBjLTAuNDMsMS4yOC0xLjUsMC40My0xLjcxLTAuNDJDMjUuNzUsMTEuMDIsMjUuOTYsMTAuMzgsMjYuNiwxMC4zOHogTTMzLjYyLDE2LjMxYy0wLjYzLTAuNjMtMC40Mi0xLjQ4LDAuNDMtMS43ICAgICBjMS40OS0wLjIxLDMuNDEsMS4yNywyLjEzLDEuN0MzNS41NCwxNi41MiwzNC40OCwxNi41MiwzMy42MiwxNi4zMXogTTkuNzksMjEuNjFjMC42NCwwLDIuMzQsMC40MiwyLjc3LDAuODQgICAgIGMwLjQyLDAuNjMtMS4yNywwLjQyLTIuMzQsMEM5LjU4LDIyLjI0LDkuMTUsMjEuODIsOS43OSwyMS42MXoiLz4mI3hhOwkJPC9nPiYjeGE7CTwvZz4mI3hhOzwvZz4mI3hhOzwvc3ZnPg==;" vertex="1" parent="1">
          <mxGeometry x="110" y="480" width="60" height="60" as="geometry" />
        </mxCell>
        <mxCell id="XahiPvy6vPGYUsTQ0Iza-4" value="GeWo Storage&lt;div&gt;&lt;/div&gt;" style="rounded=0;whiteSpace=wrap;html=1;" vertex="1" parent="1">
          <mxGeometry x="320" y="350" width="120" height="50" as="geometry" />
        </mxCell>
        <mxCell id="XahiPvy6vPGYUsTQ0Iza-7" value="User Data&lt;div&gt;&lt;/div&gt;&lt;div&gt;Storage&lt;/div&gt;" style="rounded=0;whiteSpace=wrap;html=1;" vertex="1" parent="1">
          <mxGeometry x="320" y="280" width="120" height="50" as="geometry" />
        </mxCell>
        <mxCell id="XahiPvy6vPGYUsTQ0Iza-16" style="edgeStyle=orthogonalEdgeStyle;rounded=0;orthogonalLoop=1;jettySize=auto;html=1;exitX=0.5;exitY=0;exitDx=0;exitDy=0;" edge="1" parent="1" source="XahiPvy6vPGYUsTQ0Iza-10">
          <mxGeometry relative="1" as="geometry">
            <mxPoint x="240" y="150" as="targetPoint" />
            <Array as="points">
              <mxPoint x="150" y="150" />
            </Array>
          </mxGeometry>
        </mxCell>
        <mxCell id="XahiPvy6vPGYUsTQ0Iza-17" value="Email or&lt;div&gt;Mobile Push Notification&lt;/div&gt;" style="edgeLabel;html=1;align=center;verticalAlign=middle;resizable=0;points=[];" vertex="1" connectable="0" parent="XahiPvy6vPGYUsTQ0Iza-16">
          <mxGeometry x="-0.2133" y="3" relative="1" as="geometry">
            <mxPoint as="offset" />
          </mxGeometry>
        </mxCell>
        <mxCell id="XahiPvy6vPGYUsTQ0Iza-26" style="rounded=0;orthogonalLoop=1;jettySize=auto;html=1;exitX=1;exitY=0.75;exitDx=0;exitDy=0;entryX=0;entryY=0.25;entryDx=0;entryDy=0;" edge="1" parent="1" source="XahiPvy6vPGYUsTQ0Iza-10" target="XahiPvy6vPGYUsTQ0Iza-4">
          <mxGeometry relative="1" as="geometry" />
        </mxCell>
        <mxCell id="XahiPvy6vPGYUsTQ0Iza-28" value="Fetch new&amp;nbsp;&lt;div&gt;GeWos&lt;/div&gt;" style="edgeLabel;html=1;align=center;verticalAlign=middle;resizable=0;points=[];" vertex="1" connectable="0" parent="XahiPvy6vPGYUsTQ0Iza-26">
          <mxGeometry x="-0.1247" y="-2" relative="1" as="geometry">
            <mxPoint as="offset" />
          </mxGeometry>
        </mxCell>
        <mxCell id="XahiPvy6vPGYUsTQ0Iza-27" style="rounded=0;orthogonalLoop=1;jettySize=auto;html=1;exitX=1;exitY=0.25;exitDx=0;exitDy=0;entryX=0;entryY=0.75;entryDx=0;entryDy=0;" edge="1" parent="1" source="XahiPvy6vPGYUsTQ0Iza-10" target="XahiPvy6vPGYUsTQ0Iza-7">
          <mxGeometry relative="1" as="geometry" />
        </mxCell>
        <mxCell id="XahiPvy6vPGYUsTQ0Iza-30" value="Fetch user&lt;div&gt;preferences&lt;/div&gt;" style="edgeLabel;html=1;align=center;verticalAlign=middle;resizable=0;points=[];" vertex="1" connectable="0" parent="XahiPvy6vPGYUsTQ0Iza-27">
          <mxGeometry x="-0.1023" y="2" relative="1" as="geometry">
            <mxPoint as="offset" />
          </mxGeometry>
        </mxCell>
        <mxCell id="XahiPvy6vPGYUsTQ0Iza-10" value="User Notification&lt;div&gt;Generator&lt;/div&gt;" style="rounded=0;whiteSpace=wrap;html=1;" vertex="1" parent="1">
          <mxGeometry x="90" y="310" width="120" height="60" as="geometry" />
        </mxCell>
        <mxCell id="XahiPvy6vPGYUsTQ0Iza-24" style="edgeStyle=orthogonalEdgeStyle;rounded=0;orthogonalLoop=1;jettySize=auto;html=1;entryX=0.5;entryY=0;entryDx=0;entryDy=0;" edge="1" parent="1" source="XahiPvy6vPGYUsTQ0Iza-14" target="XahiPvy6vPGYUsTQ0Iza-21">
          <mxGeometry relative="1" as="geometry" />
        </mxCell>
        <mxCell id="XahiPvy6vPGYUsTQ0Iza-25" value="Interaction via Browser" style="edgeLabel;html=1;align=center;verticalAlign=middle;resizable=0;points=[];" vertex="1" connectable="0" parent="XahiPvy6vPGYUsTQ0Iza-24">
          <mxGeometry x="0.0861" y="-1" relative="1" as="geometry">
            <mxPoint x="-108" y="-1" as="offset" />
          </mxGeometry>
        </mxCell>
        <mxCell id="XahiPvy6vPGYUsTQ0Iza-14" value="User" style="shape=umlActor;verticalLabelPosition=bottom;verticalAlign=top;html=1;outlineConnect=0;" vertex="1" parent="1">
          <mxGeometry x="240" y="120" width="30" height="60" as="geometry" />
        </mxCell>
        <mxCell id="XahiPvy6vPGYUsTQ0Iza-19" style="rounded=0;orthogonalLoop=1;jettySize=auto;html=1;exitX=0;exitY=0.25;exitDx=0;exitDy=0;entryX=1;entryY=0.75;entryDx=0;entryDy=0;" edge="1" parent="1" source="XahiPvy6vPGYUsTQ0Iza-18" target="XahiPvy6vPGYUsTQ0Iza-7">
          <mxGeometry relative="1" as="geometry" />
        </mxCell>
        <mxCell id="XahiPvy6vPGYUsTQ0Iza-20" style="rounded=0;orthogonalLoop=1;jettySize=auto;html=1;exitX=0;exitY=0.75;exitDx=0;exitDy=0;entryX=1;entryY=0.25;entryDx=0;entryDy=0;" edge="1" parent="1" source="XahiPvy6vPGYUsTQ0Iza-18" target="XahiPvy6vPGYUsTQ0Iza-4">
          <mxGeometry relative="1" as="geometry" />
        </mxCell>
        <mxCell id="XahiPvy6vPGYUsTQ0Iza-18" value="API Gateway" style="rounded=0;whiteSpace=wrap;html=1;" vertex="1" parent="1">
          <mxGeometry x="525" y="310" width="120" height="60" as="geometry" />
        </mxCell>
        <mxCell id="XahiPvy6vPGYUsTQ0Iza-22" value="" style="edgeStyle=orthogonalEdgeStyle;rounded=0;orthogonalLoop=1;jettySize=auto;html=1;entryX=0.5;entryY=0;entryDx=0;entryDy=0;" edge="1" parent="1" source="XahiPvy6vPGYUsTQ0Iza-21" target="XahiPvy6vPGYUsTQ0Iza-18">
          <mxGeometry relative="1" as="geometry" />
        </mxCell>
        <mxCell id="XahiPvy6vPGYUsTQ0Iza-35" value="" style="edgeStyle=orthogonalEdgeStyle;rounded=0;orthogonalLoop=1;jettySize=auto;html=1;" edge="1" parent="1" source="XahiPvy6vPGYUsTQ0Iza-21" target="XahiPvy6vPGYUsTQ0Iza-31">
          <mxGeometry relative="1" as="geometry" />
        </mxCell>
        <mxCell id="XahiPvy6vPGYUsTQ0Iza-21" value="Frontend" style="rounded=0;whiteSpace=wrap;html=1;" vertex="1" parent="1">
          <mxGeometry x="525" y="190" width="120" height="60" as="geometry" />
        </mxCell>
        <mxCell id="XahiPvy6vPGYUsTQ0Iza-31" value="Auth&lt;div&gt;Provider&lt;/div&gt;" style="rounded=0;whiteSpace=wrap;html=1;" vertex="1" parent="1">
          <mxGeometry x="380" y="190" width="120" height="60" as="geometry" />
        </mxCell>
      </root>
    </mxGraphModel>
  </diagram>
</mxfile>
